<svg width="70" height="22" viewBox="0 0 70 22" fill="none" xmlns="http://www.w3.org/2000/svg">
<path d="M11.8633 5.74219C12.1523 5.54688 12.8945 5.01172 14.0898 4.13672C15.2383 4.95703 16.8164 9.10156 18.8242 16.5703C18.9648 17.0938 19.0742 17.5117 19.1523 17.8242C19.3008 17.4648 19.5039 17.0117 19.7617 16.4648C20.0195 15.9102 20.2969 15.3086 20.5938 14.6602C20.8984 14.0117 21.2031 13.3398 21.5078 12.6445C21.8203 11.9492 22.1016 11.2812 22.3516 10.6406C22.9141 9.21094 23.1953 8.20703 23.1953 7.62891C23.1953 6.72266 22.9062 6.07031 22.3281 5.67188C22.1328 5.53906 21.9297 5.47266 21.7188 5.47266C21.375 5.47266 21.0625 5.53906 20.7812 5.67188C21.0391 5.53906 21.2812 5.375 21.5078 5.17969C21.7422 4.97656 21.9766 4.78125 22.2109 4.59375C22.7891 4.13281 23.3242 3.90234 23.8164 3.90234C24.3164 3.90234 24.7266 4.10156 25.0469 4.5C25.3516 4.85938 25.5039 5.30078 25.5039 5.82422C25.5039 6.76172 24.3359 9.8125 22 14.9766C21.2031 16.7422 20.7539 17.7539 20.6523 18.0117C20.5508 18.2695 20.4492 18.5156 20.3477 18.75C20.1055 19.2969 19.9258 19.6523 19.8086 19.8164C19.6914 19.9805 19.5273 20.1367 19.3164 20.2852C19.1133 20.4336 18.8867 20.5938 18.6367 20.7656C18.3867 20.9297 18.1445 21.0859 17.9102 21.2344C17.6758 21.3906 17.5117 21.5039 17.418 21.5742C17.1836 20.6523 16.9492 19.7305 16.7148 18.8086C16.4883 17.8867 16.25 16.9688 16 16.0547C15.4766 14.1094 14.9102 12.3047 14.3008 10.6406C13.7539 12.125 13.0742 13.7578 12.2617 15.5391C11.4492 17.3203 10.9492 18.4258 10.7617 18.8555C10.582 19.2852 10.3789 19.6602 10.1523 19.9805C10.0586 20.1055 9.67969 20.3867 9.01562 20.8242C8.35156 21.2539 7.97266 21.5039 7.87891 21.5742C7.79297 21.2148 7.67969 20.7148 7.53906 20.0742C7.39844 19.4258 7.23438 18.6914 7.04688 17.8711C6.85938 17.0508 6.64844 16.1797 6.41406 15.2578C6.17969 14.3359 5.92188 13.418 5.64062 12.5039C5.35938 11.5898 5.05859 10.7148 4.73828 9.87891C4.41797 9.04297 4.07812 8.30469 3.71875 7.66406C2.9375 6.26562 2.15234 5.56641 1.36328 5.56641C0.964844 5.56641 0.542969 5.69531 0.0976562 5.95312C0.855469 5.16406 1.76562 4.5625 2.82812 4.14844C3.17969 4.00781 3.48438 3.9375 3.74219 3.9375C4.42188 3.9375 5.05469 4.40625 5.64062 5.34375C6.15625 6.1875 6.58984 7.11719 6.94141 8.13281C7.29297 9.14062 7.57422 9.99219 7.78516 10.6875C7.99609 11.375 8.19531 12.0664 8.38281 12.7617C8.57031 13.4492 8.74219 14.1094 8.89844 14.7422C9.13281 15.6484 9.38281 16.6836 9.64844 17.8477C9.82812 17.4336 10.0312 16.9727 10.2578 16.4648C10.4922 15.957 10.7266 15.4297 10.9609 14.8828C11.2031 14.3281 11.4375 13.7617 11.6641 13.1836C11.8906 12.6055 12.0938 12.0352 12.2734 11.4727C12.6641 10.207 12.8594 9.17969 12.8594 8.39062C12.8594 7.25 12.5273 6.36719 11.8633 5.74219ZM33.3789 17.5312L33.3555 18.3516C33.3555 18.9609 33.5273 19.3477 33.8711 19.5117C34.0039 19.5742 34.1562 19.6055 34.3281 19.6055C34.6016 19.6055 34.8828 19.543 35.1719 19.418C34.875 19.543 34.6172 19.707 34.3984 19.9102C34.1797 20.1133 33.957 20.3125 33.7305 20.5078C33.168 20.9766 32.6016 21.2109 32.0312 21.2109C31.4609 21.2109 31.1562 20.8828 31.1172 20.2266C31.1016 20.0547 31.0938 19.8828 31.0938 19.7109C29.6875 20.6875 28.3984 21.1758 27.2266 21.1758C26.2344 21.1758 25.5469 20.875 25.1641 20.2734C25.0234 20.0547 24.9531 19.7539 24.9531 19.3711C24.9531 18.9883 25.0703 18.6055 25.3047 18.2227C25.5391 17.832 25.8359 17.4766 26.1953 17.1562C26.8359 16.5625 27.6094 16.0742 28.5156 15.6914C29.1875 15.4023 30.0508 15.2383 31.1055 15.1992V14.6836C31.1055 13.4414 30.9922 12.6016 30.7656 12.1641C30.5391 11.7266 30.2461 11.4062 29.8867 11.2031C29.5273 10.9922 29.1055 10.8867 28.6211 10.8867C27.8008 10.8867 27.0781 11.0469 26.4531 11.3672C27.3125 10.6562 27.9414 10.1875 28.3398 9.96094C29.1602 9.5 29.9023 9.26953 30.5664 9.26953C31.2383 9.26953 31.7422 9.36719 32.0781 9.5625C32.4141 9.75781 32.6797 10.0156 32.875 10.3359C33.2109 10.8984 33.3789 11.707 33.3789 12.7617V17.5312ZM27.8711 19.2188C28.0586 19.3516 28.2773 19.4492 28.5273 19.5117C28.7773 19.5742 29.1484 19.6055 29.6406 19.6055C30.1328 19.6055 30.6211 19.4883 31.1055 19.2539V16.793H29.207C28.5273 16.793 27.9336 16.8398 27.4258 16.9336C27.3242 17.2695 27.2734 17.5898 27.2734 17.8945C27.2734 18.1992 27.3242 18.4609 27.4258 18.6797C27.5352 18.8984 27.6836 19.0781 27.8711 19.2188ZM39.9297 17.3672C39.9297 18.1484 39.6836 18.8281 39.1914 19.4062H42.6367C42.543 19.4766 42.3906 19.6016 42.1797 19.7812C41.9688 19.9531 41.7422 20.1328 41.5 20.3203C40.8984 20.7734 40.5195 21 40.3633 21H36.6719C37.0625 20.6875 37.3086 20.3789 37.4102 20.0742C37.5742 19.6211 37.6562 19.125 37.6562 18.5859V10.957H36.1797L37.6562 9.79688C37.6562 8.17969 37.6953 7.11328 37.7734 6.59766C37.8594 6.08203 37.9766 5.64062 38.125 5.27344C38.2734 4.90625 38.4844 4.55078 38.7578 4.20703C39.2734 3.55078 40.125 2.83203 41.3125 2.05078C42.4219 1.30859 43.4766 0.9375 44.4766 0.9375C45.0391 0.9375 45.6836 1.08594 46.4102 1.38281C46.7773 1.53125 46.9609 1.68359 46.9609 1.83984C46.9609 2.05078 46.6016 2.42969 45.8828 2.97656C45.2109 3.48437 44.7266 3.75391 44.4297 3.78516C44.5859 3.62891 44.6641 3.50391 44.6641 3.41016C44.6641 3.30859 44.5547 3.20312 44.3359 3.09375C44.1172 2.98438 43.8672 2.88672 43.5859 2.80078C42.9609 2.61328 42.5195 2.51953 42.2617 2.51953C41.7148 2.51953 41.2773 2.57031 40.9492 2.67188C40.3086 3.5625 39.9727 4.875 39.9414 6.60938C39.9336 7.07812 39.9297 7.52734 39.9297 7.95703V9.36328H44.3242C44.2148 9.37891 43.9531 9.57031 43.5391 9.9375C42.7578 10.6172 42.2578 10.957 42.0391 10.957H39.9297V17.3672ZM48.6719 17.3672C48.6719 18.1484 48.4258 18.8281 47.9336 19.4062H51.3789C51.2852 19.4766 51.1328 19.6016 50.9219 19.7812C50.7109 19.9531 50.4844 20.1328 50.2422 20.3203C49.6406 20.7734 49.2617 21 49.1055 21H45.4141C45.8047 20.6875 46.0508 20.3789 46.1523 20.0742C46.3164 19.6211 46.3984 19.125 46.3984 18.5859V10.957H44.9219L46.3984 9.79688C46.3984 8.17969 46.4375 7.11328 46.5156 6.59766C46.6016 6.08203 46.7188 5.64062 46.8672 5.27344C47.0156 4.90625 47.2266 4.55078 47.5 4.20703C48.0156 3.55078 48.8672 2.83203 50.0547 2.05078C51.1641 1.30859 52.2188 0.9375 53.2188 0.9375C53.7812 0.9375 54.4258 1.08594 55.1523 1.38281C55.5195 1.53125 55.7031 1.68359 55.7031 1.83984C55.7031 1.84766 55.6953 1.875 55.6797 1.92188C56.0547 1.72656 56.3516 1.57813 56.5703 1.47656C56.7891 1.36719 56.9688 1.27734 57.1094 1.20703V17.3789C57.1094 17.6992 57.1094 17.9961 57.1094 18.2695C57.1172 18.543 57.1641 18.7812 57.25 18.9844C57.4453 19.4062 57.9375 19.6172 58.7266 19.6172C58.9766 19.6172 59.2188 19.5938 59.4531 19.5469C59.1953 19.75 58.9492 19.9531 58.7148 20.1562C58.4805 20.3594 58.2383 20.5391 57.9883 20.6953C57.4336 21.0547 56.8594 21.2344 56.2656 21.2344C55.4062 21.2344 54.9375 20.6406 54.8594 19.4531C54.8438 19.1328 54.8359 18.8203 54.8359 18.5156V5.97656C54.8359 4.44531 54.3125 3.67969 53.2656 3.67969C53.2188 3.6875 53.168 3.69141 53.1133 3.69141C53.0586 3.69141 53.0039 3.69531 52.9492 3.70312C52.9023 3.71094 52.8516 3.71875 52.7969 3.72656L53.3711 3.32812C53.1836 3.05469 52.5391 2.80859 51.4375 2.58984C51.1953 2.54297 51 2.51953 50.8516 2.51953C50.4062 2.51953 50.0195 2.57031 49.6914 2.67188C49.0508 3.5625 48.7148 4.875 48.6836 6.60938C48.6758 7.07812 48.6719 7.52734 48.6719 7.95703V9.36328H53.0664C52.957 9.37891 52.6953 9.57031 52.2812 9.9375C51.5 10.6172 51 10.957 50.7812 10.957H48.6719V17.3672ZM69.1797 18.832C68.1094 20.0273 66.7812 20.7734 65.1953 21.0703C64.8281 21.1328 64.375 21.1641 63.8359 21.1641C63.2969 21.1641 62.7891 21.0156 62.3125 20.7188C61.8359 20.4141 61.4453 20.0234 61.1406 19.5469C60.5625 18.625 60.2734 17.5 60.2734 16.1719C60.2734 15.2969 60.6094 14.3281 61.2812 13.2656C61.9375 12.2188 62.7383 11.3438 63.6836 10.6406C64.6992 9.89062 65.6602 9.51562 66.5664 9.51562C67.0352 9.51562 67.4297 9.6875 67.75 10.0312C68.0469 10.3672 68.1953 10.75 68.1953 11.1797C68.1953 11.6094 68.1016 12.0078 67.9141 12.375C67.7266 12.7344 67.4805 13.0859 67.1758 13.4297C66.8789 13.7734 66.5352 14.1055 66.1445 14.4258C65.7617 14.7383 65.3672 15.0312 64.9609 15.3047C64.3906 15.6953 63.6719 16.1367 62.8047 16.6289C63.0547 17.5742 63.4961 18.3047 64.1289 18.8203C64.7617 19.3281 65.5781 19.582 66.5781 19.582C67.4219 19.582 68.2891 19.332 69.1797 18.832ZM65.6406 14.1328C65.8516 13.7969 65.957 13.4688 65.957 13.1484C65.957 12.8281 65.9219 12.5586 65.8516 12.3398C65.7812 12.1133 65.6797 11.9141 65.5469 11.7422C65.2422 11.3516 64.8477 11.1562 64.3633 11.1562C63.1758 11.1562 62.582 12.3672 62.582 14.7891C62.582 15.2188 62.6172 15.6445 62.6875 16.0664C64.0625 15.6836 65.0469 15.0391 65.6406 14.1328Z" fill="black"/>
</svg>
